<?xml version="1.0" encoding="UTF-8" standalone="no"?>
<!-- Generator: Adobe Illustrator 19.0.0, SVG Export Plug-In . SVG Version: 6.00 Build 0)  -->

<svg
   xmlns:dc="http://purl.org/dc/elements/1.1/"
   xmlns:cc="http://creativecommons.org/ns#"
   xmlns:rdf="http://www.w3.org/1999/02/22-rdf-syntax-ns#"
   xmlns:svg="http://www.w3.org/2000/svg"
   xmlns="http://www.w3.org/2000/svg"
   xmlns:sodipodi="http://sodipodi.sourceforge.net/DTD/sodipodi-0.dtd"
   xmlns:inkscape="http://www.inkscape.org/namespaces/inkscape"
   version="1.1"
   id="Layer_1"
   x="0px"
   y="0px"
   viewBox="0 0 512 512"
   style="enable-background:new 0 0 512 512;"
   xml:space="preserve"
   sodipodi:docname="bug-tracker.svg"
   inkscape:version="0.92.5 (2060ec1f9f, 2020-04-08)"><metadata
   id="metadata49"><rdf:RDF><cc:Work
       rdf:about=""><dc:format>image/svg+xml</dc:format><dc:type
         rdf:resource="http://purl.org/dc/dcmitype/StillImage" /><dc:title></dc:title></cc:Work></rdf:RDF></metadata><defs
   id="defs47">
			
			
			
		</defs><sodipodi:namedview
   pagecolor="#ffffff"
   bordercolor="#666666"
   borderopacity="1"
   objecttolerance="10"
   gridtolerance="10"
   guidetolerance="10"
   inkscape:pageopacity="0"
   inkscape:pageshadow="2"
   inkscape:window-width="1366"
   inkscape:window-height="731"
   id="namedview45"
   showgrid="false"
   showguides="true"
   inkscape:guide-bbox="true"
   inkscape:zoom="0.921875"
   inkscape:cx="166.35134"
   inkscape:cy="229.79738"
   inkscape:window-x="0"
   inkscape:window-y="139"
   inkscape:window-maximized="1"
   inkscape:current-layer="g10" />
<g
   id="g12">
	<g
   id="g10">
		<path
   d="M 274.95898 116.4707 C 271.46798 116.4707 268.63867 119.30102 268.63867 122.79102 L 268.63867 486.93359 C 268.63867 490.68459 271.89114 493.64466 275.61914 493.22266 C 328.05314 487.28066 373.45891 457.82073 401.00391 415.67773 L 412.97461 391.69922 C 414.2712 392.81952 415.68114 393.87165 417.21875 394.81836 L 451.78711 416.10156 L 452.39062 477.31445 C 452.44533 482.85418 455.28164 487.692 459.56445 490.51953 C 462.13413 492.21607 465.22303 493.18712 468.54688 493.1543 L 474.33984 493.09766 C 483.2034 493.01016 490.27111 485.80498 490.18359 476.94141 L 489.61719 419.87695 C 489.89575 419.51289 490.16434 419.13827 490.4082 418.74219 L 491.34766 417.21875 C 496.57591 408.72719 491.55537 396.20658 480.0918 389.14844 L 437.0332 362.63867 C 433.14816 360.24664 429.03991 358.81902 425.09766 358.2793 C 427.61162 346.78951 428.98751 334.87873 429.08789 322.66797 L 493.04297 322.66797 C 503.51197 322.66897 512 314.18094 512 303.71094 C 512 293.24094 503.51102 284.75195 493.04102 284.75195 L 429.10352 284.75195 L 429.10352 240.37305 L 455.125 240.37305 C 468.5872 240.37305 479.42578 232.34505 479.42578 222.37305 L 479.42578 220.58203 C 479.42578 220.1169 479.39396 219.65723 479.34766 219.20117 L 509.74609 170.90625 C 514.46773 163.40447 512.22834 153.56343 504.72656 148.8418 L 499.82422 145.75586 C 497.01105 143.98525 493.87063 143.19362 490.79297 143.29102 C 485.66353 143.45332 480.71274 146.08483 477.76172 150.77344 L 445.15234 202.58203 L 429.10352 202.58203 L 429.10352 163.64062 L 429.10352 162.14453 C 429.10352 136.91953 408.65564 116.4707 383.43164 116.4707 L 274.95898 116.4707 z "
   id="path2" /><path
   inkscape:connector-curvature="0"
   id="path4"
   d="m 135.39412,99.296487 h 244.80481 c 6.6797,0 10.86276,-7.221664 7.55455,-13.023756 -57.48032,-100.813066 -202.38681,-100.892848 -259.91253,0 -3.30959,5.802092 0.87348,13.023756 7.55317,13.023756 z"
   style="stroke-width:1.37555516" /><path
   d="M 128.56836 116.4707 C 103.34436 116.4707 82.896484 136.92053 82.896484 162.14453 L 82.896484 163.64062 L 82.896484 204.58203 L 67.324219 204.58203 L 34.714844 152.77344 C 31.763822 148.08483 26.813031 145.45332 21.683594 145.29102 C 18.605931 145.19362 15.46551 145.98525 12.652344 147.75586 L 7.75 150.8418 C 0.2482229 155.56343 -1.9911663 165.40447 2.7304688 172.90625 L 33.128906 221.20117 C 33.082576 221.65723 33.050781 222.1169 33.050781 222.58203 L 33.050781 224.37305 C 33.050781 234.34505 43.889364 242.37305 57.351562 242.37305 L 82.896484 242.37305 L 82.896484 284.75195 L 18.958984 284.75195 C 8.4889848 284.75195 -2.3684758e-15 293.24094 0 303.71094 C 0 314.18094 8.4889848 322.66992 18.958984 322.66992 L 82.912109 322.66992 C 83.011833 334.87446 84.386789 346.77799 86.898438 358.26172 C 81.17417 357.4419 74.444164 358.84175 68.277344 362.63867 L 25.21875 389.14844 C 13.755179 396.20658 8.7346386 408.72719 13.962891 417.21875 L 14.902344 418.74219 C 15.146209 419.13827 15.414798 419.51289 15.693359 419.87695 L 15.128906 476.94141 C 15.041388 485.80498 22.107137 493.01016 30.970703 493.09766 L 36.763672 493.1543 C 40.087508 493.18712 43.176414 492.21607 45.746094 490.51953 C 50.02891 487.692 52.865222 482.85418 52.919922 477.31445 L 53.525391 416.10156 L 88.091797 394.81836 C 91.607998 392.65343 94.511066 389.97136 96.705078 387.05273 L 110.99609 415.67773 C 138.54109 457.82073 183.94591 487.28261 236.37891 493.22461 C 240.10591 493.64661 243.35937 490.68655 243.35938 486.93555 L 243.35938 122.79102 C 243.36038 119.30002 240.53202 116.4707 237.04102 116.4707 L 128.56836 116.4707 z "
   id="path6" />
	</g>
</g>
<g
   id="g14">
</g>
<g
   id="g16">
</g>
<g
   id="g18">
</g>
<g
   id="g20">
</g>
<g
   id="g22">
</g>
<g
   id="g24">
</g>
<g
   id="g26">
</g>
<g
   id="g28">
</g>
<g
   id="g30">
</g>
<g
   id="g32">
</g>
<g
   id="g34">
</g>
<g
   id="g36">
</g>
<g
   id="g38">
</g>
<g
   id="g40">
</g>
<g
   id="g42">
</g>
</svg>